G04 #@! TF.GenerationSoftware,KiCad,Pcbnew,(5.0.0)*
G04 #@! TF.CreationDate,2019-05-14T22:32:20-05:00*
G04 #@! TF.ProjectId,End Effector PCB,456E64204566666563746F7220504342,rev?*
G04 #@! TF.SameCoordinates,Original*
G04 #@! TF.FileFunction,Paste,Top*
G04 #@! TF.FilePolarity,Positive*
%FSLAX46Y46*%
G04 Gerber Fmt 4.6, Leading zero omitted, Abs format (unit mm)*
G04 Created by KiCad (PCBNEW (5.0.0)) date 05/14/19 22:32:20*
%MOMM*%
%LPD*%
G01*
G04 APERTURE LIST*
%ADD10C,0.100000*%
%ADD11C,0.975000*%
%ADD12R,1.600000X0.550000*%
%ADD13R,0.550000X1.600000*%
%ADD14R,1.300000X1.600000*%
G04 APERTURE END LIST*
D10*
G04 #@! TO.C,C1*
G36*
X214565142Y-83121174D02*
X214588803Y-83124684D01*
X214612007Y-83130496D01*
X214634529Y-83138554D01*
X214656153Y-83148782D01*
X214676670Y-83161079D01*
X214695883Y-83175329D01*
X214713607Y-83191393D01*
X214729671Y-83209117D01*
X214743921Y-83228330D01*
X214756218Y-83248847D01*
X214766446Y-83270471D01*
X214774504Y-83292993D01*
X214780316Y-83316197D01*
X214783826Y-83339858D01*
X214785000Y-83363750D01*
X214785000Y-84276250D01*
X214783826Y-84300142D01*
X214780316Y-84323803D01*
X214774504Y-84347007D01*
X214766446Y-84369529D01*
X214756218Y-84391153D01*
X214743921Y-84411670D01*
X214729671Y-84430883D01*
X214713607Y-84448607D01*
X214695883Y-84464671D01*
X214676670Y-84478921D01*
X214656153Y-84491218D01*
X214634529Y-84501446D01*
X214612007Y-84509504D01*
X214588803Y-84515316D01*
X214565142Y-84518826D01*
X214541250Y-84520000D01*
X214053750Y-84520000D01*
X214029858Y-84518826D01*
X214006197Y-84515316D01*
X213982993Y-84509504D01*
X213960471Y-84501446D01*
X213938847Y-84491218D01*
X213918330Y-84478921D01*
X213899117Y-84464671D01*
X213881393Y-84448607D01*
X213865329Y-84430883D01*
X213851079Y-84411670D01*
X213838782Y-84391153D01*
X213828554Y-84369529D01*
X213820496Y-84347007D01*
X213814684Y-84323803D01*
X213811174Y-84300142D01*
X213810000Y-84276250D01*
X213810000Y-83363750D01*
X213811174Y-83339858D01*
X213814684Y-83316197D01*
X213820496Y-83292993D01*
X213828554Y-83270471D01*
X213838782Y-83248847D01*
X213851079Y-83228330D01*
X213865329Y-83209117D01*
X213881393Y-83191393D01*
X213899117Y-83175329D01*
X213918330Y-83161079D01*
X213938847Y-83148782D01*
X213960471Y-83138554D01*
X213982993Y-83130496D01*
X214006197Y-83124684D01*
X214029858Y-83121174D01*
X214053750Y-83120000D01*
X214541250Y-83120000D01*
X214565142Y-83121174D01*
X214565142Y-83121174D01*
G37*
D11*
X214297500Y-83820000D03*
D10*
G36*
X212690142Y-83121174D02*
X212713803Y-83124684D01*
X212737007Y-83130496D01*
X212759529Y-83138554D01*
X212781153Y-83148782D01*
X212801670Y-83161079D01*
X212820883Y-83175329D01*
X212838607Y-83191393D01*
X212854671Y-83209117D01*
X212868921Y-83228330D01*
X212881218Y-83248847D01*
X212891446Y-83270471D01*
X212899504Y-83292993D01*
X212905316Y-83316197D01*
X212908826Y-83339858D01*
X212910000Y-83363750D01*
X212910000Y-84276250D01*
X212908826Y-84300142D01*
X212905316Y-84323803D01*
X212899504Y-84347007D01*
X212891446Y-84369529D01*
X212881218Y-84391153D01*
X212868921Y-84411670D01*
X212854671Y-84430883D01*
X212838607Y-84448607D01*
X212820883Y-84464671D01*
X212801670Y-84478921D01*
X212781153Y-84491218D01*
X212759529Y-84501446D01*
X212737007Y-84509504D01*
X212713803Y-84515316D01*
X212690142Y-84518826D01*
X212666250Y-84520000D01*
X212178750Y-84520000D01*
X212154858Y-84518826D01*
X212131197Y-84515316D01*
X212107993Y-84509504D01*
X212085471Y-84501446D01*
X212063847Y-84491218D01*
X212043330Y-84478921D01*
X212024117Y-84464671D01*
X212006393Y-84448607D01*
X211990329Y-84430883D01*
X211976079Y-84411670D01*
X211963782Y-84391153D01*
X211953554Y-84369529D01*
X211945496Y-84347007D01*
X211939684Y-84323803D01*
X211936174Y-84300142D01*
X211935000Y-84276250D01*
X211935000Y-83363750D01*
X211936174Y-83339858D01*
X211939684Y-83316197D01*
X211945496Y-83292993D01*
X211953554Y-83270471D01*
X211963782Y-83248847D01*
X211976079Y-83228330D01*
X211990329Y-83209117D01*
X212006393Y-83191393D01*
X212024117Y-83175329D01*
X212043330Y-83161079D01*
X212063847Y-83148782D01*
X212085471Y-83138554D01*
X212107993Y-83130496D01*
X212131197Y-83124684D01*
X212154858Y-83121174D01*
X212178750Y-83120000D01*
X212666250Y-83120000D01*
X212690142Y-83121174D01*
X212690142Y-83121174D01*
G37*
D11*
X212422500Y-83820000D03*
G04 #@! TD*
D10*
G04 #@! TO.C,C2*
G36*
X207610142Y-83121174D02*
X207633803Y-83124684D01*
X207657007Y-83130496D01*
X207679529Y-83138554D01*
X207701153Y-83148782D01*
X207721670Y-83161079D01*
X207740883Y-83175329D01*
X207758607Y-83191393D01*
X207774671Y-83209117D01*
X207788921Y-83228330D01*
X207801218Y-83248847D01*
X207811446Y-83270471D01*
X207819504Y-83292993D01*
X207825316Y-83316197D01*
X207828826Y-83339858D01*
X207830000Y-83363750D01*
X207830000Y-84276250D01*
X207828826Y-84300142D01*
X207825316Y-84323803D01*
X207819504Y-84347007D01*
X207811446Y-84369529D01*
X207801218Y-84391153D01*
X207788921Y-84411670D01*
X207774671Y-84430883D01*
X207758607Y-84448607D01*
X207740883Y-84464671D01*
X207721670Y-84478921D01*
X207701153Y-84491218D01*
X207679529Y-84501446D01*
X207657007Y-84509504D01*
X207633803Y-84515316D01*
X207610142Y-84518826D01*
X207586250Y-84520000D01*
X207098750Y-84520000D01*
X207074858Y-84518826D01*
X207051197Y-84515316D01*
X207027993Y-84509504D01*
X207005471Y-84501446D01*
X206983847Y-84491218D01*
X206963330Y-84478921D01*
X206944117Y-84464671D01*
X206926393Y-84448607D01*
X206910329Y-84430883D01*
X206896079Y-84411670D01*
X206883782Y-84391153D01*
X206873554Y-84369529D01*
X206865496Y-84347007D01*
X206859684Y-84323803D01*
X206856174Y-84300142D01*
X206855000Y-84276250D01*
X206855000Y-83363750D01*
X206856174Y-83339858D01*
X206859684Y-83316197D01*
X206865496Y-83292993D01*
X206873554Y-83270471D01*
X206883782Y-83248847D01*
X206896079Y-83228330D01*
X206910329Y-83209117D01*
X206926393Y-83191393D01*
X206944117Y-83175329D01*
X206963330Y-83161079D01*
X206983847Y-83148782D01*
X207005471Y-83138554D01*
X207027993Y-83130496D01*
X207051197Y-83124684D01*
X207074858Y-83121174D01*
X207098750Y-83120000D01*
X207586250Y-83120000D01*
X207610142Y-83121174D01*
X207610142Y-83121174D01*
G37*
D11*
X207342500Y-83820000D03*
D10*
G36*
X209485142Y-83121174D02*
X209508803Y-83124684D01*
X209532007Y-83130496D01*
X209554529Y-83138554D01*
X209576153Y-83148782D01*
X209596670Y-83161079D01*
X209615883Y-83175329D01*
X209633607Y-83191393D01*
X209649671Y-83209117D01*
X209663921Y-83228330D01*
X209676218Y-83248847D01*
X209686446Y-83270471D01*
X209694504Y-83292993D01*
X209700316Y-83316197D01*
X209703826Y-83339858D01*
X209705000Y-83363750D01*
X209705000Y-84276250D01*
X209703826Y-84300142D01*
X209700316Y-84323803D01*
X209694504Y-84347007D01*
X209686446Y-84369529D01*
X209676218Y-84391153D01*
X209663921Y-84411670D01*
X209649671Y-84430883D01*
X209633607Y-84448607D01*
X209615883Y-84464671D01*
X209596670Y-84478921D01*
X209576153Y-84491218D01*
X209554529Y-84501446D01*
X209532007Y-84509504D01*
X209508803Y-84515316D01*
X209485142Y-84518826D01*
X209461250Y-84520000D01*
X208973750Y-84520000D01*
X208949858Y-84518826D01*
X208926197Y-84515316D01*
X208902993Y-84509504D01*
X208880471Y-84501446D01*
X208858847Y-84491218D01*
X208838330Y-84478921D01*
X208819117Y-84464671D01*
X208801393Y-84448607D01*
X208785329Y-84430883D01*
X208771079Y-84411670D01*
X208758782Y-84391153D01*
X208748554Y-84369529D01*
X208740496Y-84347007D01*
X208734684Y-84323803D01*
X208731174Y-84300142D01*
X208730000Y-84276250D01*
X208730000Y-83363750D01*
X208731174Y-83339858D01*
X208734684Y-83316197D01*
X208740496Y-83292993D01*
X208748554Y-83270471D01*
X208758782Y-83248847D01*
X208771079Y-83228330D01*
X208785329Y-83209117D01*
X208801393Y-83191393D01*
X208819117Y-83175329D01*
X208838330Y-83161079D01*
X208858847Y-83148782D01*
X208880471Y-83138554D01*
X208902993Y-83130496D01*
X208926197Y-83124684D01*
X208949858Y-83121174D01*
X208973750Y-83120000D01*
X209461250Y-83120000D01*
X209485142Y-83121174D01*
X209485142Y-83121174D01*
G37*
D11*
X209217500Y-83820000D03*
G04 #@! TD*
D10*
G04 #@! TO.C,C3*
G36*
X212690142Y-86931174D02*
X212713803Y-86934684D01*
X212737007Y-86940496D01*
X212759529Y-86948554D01*
X212781153Y-86958782D01*
X212801670Y-86971079D01*
X212820883Y-86985329D01*
X212838607Y-87001393D01*
X212854671Y-87019117D01*
X212868921Y-87038330D01*
X212881218Y-87058847D01*
X212891446Y-87080471D01*
X212899504Y-87102993D01*
X212905316Y-87126197D01*
X212908826Y-87149858D01*
X212910000Y-87173750D01*
X212910000Y-88086250D01*
X212908826Y-88110142D01*
X212905316Y-88133803D01*
X212899504Y-88157007D01*
X212891446Y-88179529D01*
X212881218Y-88201153D01*
X212868921Y-88221670D01*
X212854671Y-88240883D01*
X212838607Y-88258607D01*
X212820883Y-88274671D01*
X212801670Y-88288921D01*
X212781153Y-88301218D01*
X212759529Y-88311446D01*
X212737007Y-88319504D01*
X212713803Y-88325316D01*
X212690142Y-88328826D01*
X212666250Y-88330000D01*
X212178750Y-88330000D01*
X212154858Y-88328826D01*
X212131197Y-88325316D01*
X212107993Y-88319504D01*
X212085471Y-88311446D01*
X212063847Y-88301218D01*
X212043330Y-88288921D01*
X212024117Y-88274671D01*
X212006393Y-88258607D01*
X211990329Y-88240883D01*
X211976079Y-88221670D01*
X211963782Y-88201153D01*
X211953554Y-88179529D01*
X211945496Y-88157007D01*
X211939684Y-88133803D01*
X211936174Y-88110142D01*
X211935000Y-88086250D01*
X211935000Y-87173750D01*
X211936174Y-87149858D01*
X211939684Y-87126197D01*
X211945496Y-87102993D01*
X211953554Y-87080471D01*
X211963782Y-87058847D01*
X211976079Y-87038330D01*
X211990329Y-87019117D01*
X212006393Y-87001393D01*
X212024117Y-86985329D01*
X212043330Y-86971079D01*
X212063847Y-86958782D01*
X212085471Y-86948554D01*
X212107993Y-86940496D01*
X212131197Y-86934684D01*
X212154858Y-86931174D01*
X212178750Y-86930000D01*
X212666250Y-86930000D01*
X212690142Y-86931174D01*
X212690142Y-86931174D01*
G37*
D11*
X212422500Y-87630000D03*
D10*
G36*
X214565142Y-86931174D02*
X214588803Y-86934684D01*
X214612007Y-86940496D01*
X214634529Y-86948554D01*
X214656153Y-86958782D01*
X214676670Y-86971079D01*
X214695883Y-86985329D01*
X214713607Y-87001393D01*
X214729671Y-87019117D01*
X214743921Y-87038330D01*
X214756218Y-87058847D01*
X214766446Y-87080471D01*
X214774504Y-87102993D01*
X214780316Y-87126197D01*
X214783826Y-87149858D01*
X214785000Y-87173750D01*
X214785000Y-88086250D01*
X214783826Y-88110142D01*
X214780316Y-88133803D01*
X214774504Y-88157007D01*
X214766446Y-88179529D01*
X214756218Y-88201153D01*
X214743921Y-88221670D01*
X214729671Y-88240883D01*
X214713607Y-88258607D01*
X214695883Y-88274671D01*
X214676670Y-88288921D01*
X214656153Y-88301218D01*
X214634529Y-88311446D01*
X214612007Y-88319504D01*
X214588803Y-88325316D01*
X214565142Y-88328826D01*
X214541250Y-88330000D01*
X214053750Y-88330000D01*
X214029858Y-88328826D01*
X214006197Y-88325316D01*
X213982993Y-88319504D01*
X213960471Y-88311446D01*
X213938847Y-88301218D01*
X213918330Y-88288921D01*
X213899117Y-88274671D01*
X213881393Y-88258607D01*
X213865329Y-88240883D01*
X213851079Y-88221670D01*
X213838782Y-88201153D01*
X213828554Y-88179529D01*
X213820496Y-88157007D01*
X213814684Y-88133803D01*
X213811174Y-88110142D01*
X213810000Y-88086250D01*
X213810000Y-87173750D01*
X213811174Y-87149858D01*
X213814684Y-87126197D01*
X213820496Y-87102993D01*
X213828554Y-87080471D01*
X213838782Y-87058847D01*
X213851079Y-87038330D01*
X213865329Y-87019117D01*
X213881393Y-87001393D01*
X213899117Y-86985329D01*
X213918330Y-86971079D01*
X213938847Y-86958782D01*
X213960471Y-86948554D01*
X213982993Y-86940496D01*
X214006197Y-86934684D01*
X214029858Y-86931174D01*
X214053750Y-86930000D01*
X214541250Y-86930000D01*
X214565142Y-86931174D01*
X214565142Y-86931174D01*
G37*
D11*
X214297500Y-87630000D03*
G04 #@! TD*
D10*
G04 #@! TO.C,C4*
G36*
X214565142Y-90741174D02*
X214588803Y-90744684D01*
X214612007Y-90750496D01*
X214634529Y-90758554D01*
X214656153Y-90768782D01*
X214676670Y-90781079D01*
X214695883Y-90795329D01*
X214713607Y-90811393D01*
X214729671Y-90829117D01*
X214743921Y-90848330D01*
X214756218Y-90868847D01*
X214766446Y-90890471D01*
X214774504Y-90912993D01*
X214780316Y-90936197D01*
X214783826Y-90959858D01*
X214785000Y-90983750D01*
X214785000Y-91896250D01*
X214783826Y-91920142D01*
X214780316Y-91943803D01*
X214774504Y-91967007D01*
X214766446Y-91989529D01*
X214756218Y-92011153D01*
X214743921Y-92031670D01*
X214729671Y-92050883D01*
X214713607Y-92068607D01*
X214695883Y-92084671D01*
X214676670Y-92098921D01*
X214656153Y-92111218D01*
X214634529Y-92121446D01*
X214612007Y-92129504D01*
X214588803Y-92135316D01*
X214565142Y-92138826D01*
X214541250Y-92140000D01*
X214053750Y-92140000D01*
X214029858Y-92138826D01*
X214006197Y-92135316D01*
X213982993Y-92129504D01*
X213960471Y-92121446D01*
X213938847Y-92111218D01*
X213918330Y-92098921D01*
X213899117Y-92084671D01*
X213881393Y-92068607D01*
X213865329Y-92050883D01*
X213851079Y-92031670D01*
X213838782Y-92011153D01*
X213828554Y-91989529D01*
X213820496Y-91967007D01*
X213814684Y-91943803D01*
X213811174Y-91920142D01*
X213810000Y-91896250D01*
X213810000Y-90983750D01*
X213811174Y-90959858D01*
X213814684Y-90936197D01*
X213820496Y-90912993D01*
X213828554Y-90890471D01*
X213838782Y-90868847D01*
X213851079Y-90848330D01*
X213865329Y-90829117D01*
X213881393Y-90811393D01*
X213899117Y-90795329D01*
X213918330Y-90781079D01*
X213938847Y-90768782D01*
X213960471Y-90758554D01*
X213982993Y-90750496D01*
X214006197Y-90744684D01*
X214029858Y-90741174D01*
X214053750Y-90740000D01*
X214541250Y-90740000D01*
X214565142Y-90741174D01*
X214565142Y-90741174D01*
G37*
D11*
X214297500Y-91440000D03*
D10*
G36*
X212690142Y-90741174D02*
X212713803Y-90744684D01*
X212737007Y-90750496D01*
X212759529Y-90758554D01*
X212781153Y-90768782D01*
X212801670Y-90781079D01*
X212820883Y-90795329D01*
X212838607Y-90811393D01*
X212854671Y-90829117D01*
X212868921Y-90848330D01*
X212881218Y-90868847D01*
X212891446Y-90890471D01*
X212899504Y-90912993D01*
X212905316Y-90936197D01*
X212908826Y-90959858D01*
X212910000Y-90983750D01*
X212910000Y-91896250D01*
X212908826Y-91920142D01*
X212905316Y-91943803D01*
X212899504Y-91967007D01*
X212891446Y-91989529D01*
X212881218Y-92011153D01*
X212868921Y-92031670D01*
X212854671Y-92050883D01*
X212838607Y-92068607D01*
X212820883Y-92084671D01*
X212801670Y-92098921D01*
X212781153Y-92111218D01*
X212759529Y-92121446D01*
X212737007Y-92129504D01*
X212713803Y-92135316D01*
X212690142Y-92138826D01*
X212666250Y-92140000D01*
X212178750Y-92140000D01*
X212154858Y-92138826D01*
X212131197Y-92135316D01*
X212107993Y-92129504D01*
X212085471Y-92121446D01*
X212063847Y-92111218D01*
X212043330Y-92098921D01*
X212024117Y-92084671D01*
X212006393Y-92068607D01*
X211990329Y-92050883D01*
X211976079Y-92031670D01*
X211963782Y-92011153D01*
X211953554Y-91989529D01*
X211945496Y-91967007D01*
X211939684Y-91943803D01*
X211936174Y-91920142D01*
X211935000Y-91896250D01*
X211935000Y-90983750D01*
X211936174Y-90959858D01*
X211939684Y-90936197D01*
X211945496Y-90912993D01*
X211953554Y-90890471D01*
X211963782Y-90868847D01*
X211976079Y-90848330D01*
X211990329Y-90829117D01*
X212006393Y-90811393D01*
X212024117Y-90795329D01*
X212043330Y-90781079D01*
X212063847Y-90768782D01*
X212085471Y-90758554D01*
X212107993Y-90750496D01*
X212131197Y-90744684D01*
X212154858Y-90741174D01*
X212178750Y-90740000D01*
X212666250Y-90740000D01*
X212690142Y-90741174D01*
X212690142Y-90741174D01*
G37*
D11*
X212422500Y-91440000D03*
G04 #@! TD*
D10*
G04 #@! TO.C,C5*
G36*
X192250142Y-91286174D02*
X192273803Y-91289684D01*
X192297007Y-91295496D01*
X192319529Y-91303554D01*
X192341153Y-91313782D01*
X192361670Y-91326079D01*
X192380883Y-91340329D01*
X192398607Y-91356393D01*
X192414671Y-91374117D01*
X192428921Y-91393330D01*
X192441218Y-91413847D01*
X192451446Y-91435471D01*
X192459504Y-91457993D01*
X192465316Y-91481197D01*
X192468826Y-91504858D01*
X192470000Y-91528750D01*
X192470000Y-92016250D01*
X192468826Y-92040142D01*
X192465316Y-92063803D01*
X192459504Y-92087007D01*
X192451446Y-92109529D01*
X192441218Y-92131153D01*
X192428921Y-92151670D01*
X192414671Y-92170883D01*
X192398607Y-92188607D01*
X192380883Y-92204671D01*
X192361670Y-92218921D01*
X192341153Y-92231218D01*
X192319529Y-92241446D01*
X192297007Y-92249504D01*
X192273803Y-92255316D01*
X192250142Y-92258826D01*
X192226250Y-92260000D01*
X191313750Y-92260000D01*
X191289858Y-92258826D01*
X191266197Y-92255316D01*
X191242993Y-92249504D01*
X191220471Y-92241446D01*
X191198847Y-92231218D01*
X191178330Y-92218921D01*
X191159117Y-92204671D01*
X191141393Y-92188607D01*
X191125329Y-92170883D01*
X191111079Y-92151670D01*
X191098782Y-92131153D01*
X191088554Y-92109529D01*
X191080496Y-92087007D01*
X191074684Y-92063803D01*
X191071174Y-92040142D01*
X191070000Y-92016250D01*
X191070000Y-91528750D01*
X191071174Y-91504858D01*
X191074684Y-91481197D01*
X191080496Y-91457993D01*
X191088554Y-91435471D01*
X191098782Y-91413847D01*
X191111079Y-91393330D01*
X191125329Y-91374117D01*
X191141393Y-91356393D01*
X191159117Y-91340329D01*
X191178330Y-91326079D01*
X191198847Y-91313782D01*
X191220471Y-91303554D01*
X191242993Y-91295496D01*
X191266197Y-91289684D01*
X191289858Y-91286174D01*
X191313750Y-91285000D01*
X192226250Y-91285000D01*
X192250142Y-91286174D01*
X192250142Y-91286174D01*
G37*
D11*
X191770000Y-91772500D03*
D10*
G36*
X192250142Y-93161174D02*
X192273803Y-93164684D01*
X192297007Y-93170496D01*
X192319529Y-93178554D01*
X192341153Y-93188782D01*
X192361670Y-93201079D01*
X192380883Y-93215329D01*
X192398607Y-93231393D01*
X192414671Y-93249117D01*
X192428921Y-93268330D01*
X192441218Y-93288847D01*
X192451446Y-93310471D01*
X192459504Y-93332993D01*
X192465316Y-93356197D01*
X192468826Y-93379858D01*
X192470000Y-93403750D01*
X192470000Y-93891250D01*
X192468826Y-93915142D01*
X192465316Y-93938803D01*
X192459504Y-93962007D01*
X192451446Y-93984529D01*
X192441218Y-94006153D01*
X192428921Y-94026670D01*
X192414671Y-94045883D01*
X192398607Y-94063607D01*
X192380883Y-94079671D01*
X192361670Y-94093921D01*
X192341153Y-94106218D01*
X192319529Y-94116446D01*
X192297007Y-94124504D01*
X192273803Y-94130316D01*
X192250142Y-94133826D01*
X192226250Y-94135000D01*
X191313750Y-94135000D01*
X191289858Y-94133826D01*
X191266197Y-94130316D01*
X191242993Y-94124504D01*
X191220471Y-94116446D01*
X191198847Y-94106218D01*
X191178330Y-94093921D01*
X191159117Y-94079671D01*
X191141393Y-94063607D01*
X191125329Y-94045883D01*
X191111079Y-94026670D01*
X191098782Y-94006153D01*
X191088554Y-93984529D01*
X191080496Y-93962007D01*
X191074684Y-93938803D01*
X191071174Y-93915142D01*
X191070000Y-93891250D01*
X191070000Y-93403750D01*
X191071174Y-93379858D01*
X191074684Y-93356197D01*
X191080496Y-93332993D01*
X191088554Y-93310471D01*
X191098782Y-93288847D01*
X191111079Y-93268330D01*
X191125329Y-93249117D01*
X191141393Y-93231393D01*
X191159117Y-93215329D01*
X191178330Y-93201079D01*
X191198847Y-93188782D01*
X191220471Y-93178554D01*
X191242993Y-93170496D01*
X191266197Y-93164684D01*
X191289858Y-93161174D01*
X191313750Y-93160000D01*
X192226250Y-93160000D01*
X192250142Y-93161174D01*
X192250142Y-93161174D01*
G37*
D11*
X191770000Y-93647500D03*
G04 #@! TD*
D10*
G04 #@! TO.C,C6*
G36*
X192250142Y-89351174D02*
X192273803Y-89354684D01*
X192297007Y-89360496D01*
X192319529Y-89368554D01*
X192341153Y-89378782D01*
X192361670Y-89391079D01*
X192380883Y-89405329D01*
X192398607Y-89421393D01*
X192414671Y-89439117D01*
X192428921Y-89458330D01*
X192441218Y-89478847D01*
X192451446Y-89500471D01*
X192459504Y-89522993D01*
X192465316Y-89546197D01*
X192468826Y-89569858D01*
X192470000Y-89593750D01*
X192470000Y-90081250D01*
X192468826Y-90105142D01*
X192465316Y-90128803D01*
X192459504Y-90152007D01*
X192451446Y-90174529D01*
X192441218Y-90196153D01*
X192428921Y-90216670D01*
X192414671Y-90235883D01*
X192398607Y-90253607D01*
X192380883Y-90269671D01*
X192361670Y-90283921D01*
X192341153Y-90296218D01*
X192319529Y-90306446D01*
X192297007Y-90314504D01*
X192273803Y-90320316D01*
X192250142Y-90323826D01*
X192226250Y-90325000D01*
X191313750Y-90325000D01*
X191289858Y-90323826D01*
X191266197Y-90320316D01*
X191242993Y-90314504D01*
X191220471Y-90306446D01*
X191198847Y-90296218D01*
X191178330Y-90283921D01*
X191159117Y-90269671D01*
X191141393Y-90253607D01*
X191125329Y-90235883D01*
X191111079Y-90216670D01*
X191098782Y-90196153D01*
X191088554Y-90174529D01*
X191080496Y-90152007D01*
X191074684Y-90128803D01*
X191071174Y-90105142D01*
X191070000Y-90081250D01*
X191070000Y-89593750D01*
X191071174Y-89569858D01*
X191074684Y-89546197D01*
X191080496Y-89522993D01*
X191088554Y-89500471D01*
X191098782Y-89478847D01*
X191111079Y-89458330D01*
X191125329Y-89439117D01*
X191141393Y-89421393D01*
X191159117Y-89405329D01*
X191178330Y-89391079D01*
X191198847Y-89378782D01*
X191220471Y-89368554D01*
X191242993Y-89360496D01*
X191266197Y-89354684D01*
X191289858Y-89351174D01*
X191313750Y-89350000D01*
X192226250Y-89350000D01*
X192250142Y-89351174D01*
X192250142Y-89351174D01*
G37*
D11*
X191770000Y-89837500D03*
D10*
G36*
X192250142Y-87476174D02*
X192273803Y-87479684D01*
X192297007Y-87485496D01*
X192319529Y-87493554D01*
X192341153Y-87503782D01*
X192361670Y-87516079D01*
X192380883Y-87530329D01*
X192398607Y-87546393D01*
X192414671Y-87564117D01*
X192428921Y-87583330D01*
X192441218Y-87603847D01*
X192451446Y-87625471D01*
X192459504Y-87647993D01*
X192465316Y-87671197D01*
X192468826Y-87694858D01*
X192470000Y-87718750D01*
X192470000Y-88206250D01*
X192468826Y-88230142D01*
X192465316Y-88253803D01*
X192459504Y-88277007D01*
X192451446Y-88299529D01*
X192441218Y-88321153D01*
X192428921Y-88341670D01*
X192414671Y-88360883D01*
X192398607Y-88378607D01*
X192380883Y-88394671D01*
X192361670Y-88408921D01*
X192341153Y-88421218D01*
X192319529Y-88431446D01*
X192297007Y-88439504D01*
X192273803Y-88445316D01*
X192250142Y-88448826D01*
X192226250Y-88450000D01*
X191313750Y-88450000D01*
X191289858Y-88448826D01*
X191266197Y-88445316D01*
X191242993Y-88439504D01*
X191220471Y-88431446D01*
X191198847Y-88421218D01*
X191178330Y-88408921D01*
X191159117Y-88394671D01*
X191141393Y-88378607D01*
X191125329Y-88360883D01*
X191111079Y-88341670D01*
X191098782Y-88321153D01*
X191088554Y-88299529D01*
X191080496Y-88277007D01*
X191074684Y-88253803D01*
X191071174Y-88230142D01*
X191070000Y-88206250D01*
X191070000Y-87718750D01*
X191071174Y-87694858D01*
X191074684Y-87671197D01*
X191080496Y-87647993D01*
X191088554Y-87625471D01*
X191098782Y-87603847D01*
X191111079Y-87583330D01*
X191125329Y-87564117D01*
X191141393Y-87546393D01*
X191159117Y-87530329D01*
X191178330Y-87516079D01*
X191198847Y-87503782D01*
X191220471Y-87493554D01*
X191242993Y-87485496D01*
X191266197Y-87479684D01*
X191289858Y-87476174D01*
X191313750Y-87475000D01*
X192226250Y-87475000D01*
X192250142Y-87476174D01*
X192250142Y-87476174D01*
G37*
D11*
X191770000Y-87962500D03*
G04 #@! TD*
D10*
G04 #@! TO.C,D1*
G36*
X202530142Y-83121174D02*
X202553803Y-83124684D01*
X202577007Y-83130496D01*
X202599529Y-83138554D01*
X202621153Y-83148782D01*
X202641670Y-83161079D01*
X202660883Y-83175329D01*
X202678607Y-83191393D01*
X202694671Y-83209117D01*
X202708921Y-83228330D01*
X202721218Y-83248847D01*
X202731446Y-83270471D01*
X202739504Y-83292993D01*
X202745316Y-83316197D01*
X202748826Y-83339858D01*
X202750000Y-83363750D01*
X202750000Y-84276250D01*
X202748826Y-84300142D01*
X202745316Y-84323803D01*
X202739504Y-84347007D01*
X202731446Y-84369529D01*
X202721218Y-84391153D01*
X202708921Y-84411670D01*
X202694671Y-84430883D01*
X202678607Y-84448607D01*
X202660883Y-84464671D01*
X202641670Y-84478921D01*
X202621153Y-84491218D01*
X202599529Y-84501446D01*
X202577007Y-84509504D01*
X202553803Y-84515316D01*
X202530142Y-84518826D01*
X202506250Y-84520000D01*
X202018750Y-84520000D01*
X201994858Y-84518826D01*
X201971197Y-84515316D01*
X201947993Y-84509504D01*
X201925471Y-84501446D01*
X201903847Y-84491218D01*
X201883330Y-84478921D01*
X201864117Y-84464671D01*
X201846393Y-84448607D01*
X201830329Y-84430883D01*
X201816079Y-84411670D01*
X201803782Y-84391153D01*
X201793554Y-84369529D01*
X201785496Y-84347007D01*
X201779684Y-84323803D01*
X201776174Y-84300142D01*
X201775000Y-84276250D01*
X201775000Y-83363750D01*
X201776174Y-83339858D01*
X201779684Y-83316197D01*
X201785496Y-83292993D01*
X201793554Y-83270471D01*
X201803782Y-83248847D01*
X201816079Y-83228330D01*
X201830329Y-83209117D01*
X201846393Y-83191393D01*
X201864117Y-83175329D01*
X201883330Y-83161079D01*
X201903847Y-83148782D01*
X201925471Y-83138554D01*
X201947993Y-83130496D01*
X201971197Y-83124684D01*
X201994858Y-83121174D01*
X202018750Y-83120000D01*
X202506250Y-83120000D01*
X202530142Y-83121174D01*
X202530142Y-83121174D01*
G37*
D11*
X202262500Y-83820000D03*
D10*
G36*
X204405142Y-83121174D02*
X204428803Y-83124684D01*
X204452007Y-83130496D01*
X204474529Y-83138554D01*
X204496153Y-83148782D01*
X204516670Y-83161079D01*
X204535883Y-83175329D01*
X204553607Y-83191393D01*
X204569671Y-83209117D01*
X204583921Y-83228330D01*
X204596218Y-83248847D01*
X204606446Y-83270471D01*
X204614504Y-83292993D01*
X204620316Y-83316197D01*
X204623826Y-83339858D01*
X204625000Y-83363750D01*
X204625000Y-84276250D01*
X204623826Y-84300142D01*
X204620316Y-84323803D01*
X204614504Y-84347007D01*
X204606446Y-84369529D01*
X204596218Y-84391153D01*
X204583921Y-84411670D01*
X204569671Y-84430883D01*
X204553607Y-84448607D01*
X204535883Y-84464671D01*
X204516670Y-84478921D01*
X204496153Y-84491218D01*
X204474529Y-84501446D01*
X204452007Y-84509504D01*
X204428803Y-84515316D01*
X204405142Y-84518826D01*
X204381250Y-84520000D01*
X203893750Y-84520000D01*
X203869858Y-84518826D01*
X203846197Y-84515316D01*
X203822993Y-84509504D01*
X203800471Y-84501446D01*
X203778847Y-84491218D01*
X203758330Y-84478921D01*
X203739117Y-84464671D01*
X203721393Y-84448607D01*
X203705329Y-84430883D01*
X203691079Y-84411670D01*
X203678782Y-84391153D01*
X203668554Y-84369529D01*
X203660496Y-84347007D01*
X203654684Y-84323803D01*
X203651174Y-84300142D01*
X203650000Y-84276250D01*
X203650000Y-83363750D01*
X203651174Y-83339858D01*
X203654684Y-83316197D01*
X203660496Y-83292993D01*
X203668554Y-83270471D01*
X203678782Y-83248847D01*
X203691079Y-83228330D01*
X203705329Y-83209117D01*
X203721393Y-83191393D01*
X203739117Y-83175329D01*
X203758330Y-83161079D01*
X203778847Y-83148782D01*
X203800471Y-83138554D01*
X203822993Y-83130496D01*
X203846197Y-83124684D01*
X203869858Y-83121174D01*
X203893750Y-83120000D01*
X204381250Y-83120000D01*
X204405142Y-83121174D01*
X204405142Y-83121174D01*
G37*
D11*
X204137500Y-83820000D03*
G04 #@! TD*
D10*
G04 #@! TO.C,R1*
G36*
X194245142Y-83121174D02*
X194268803Y-83124684D01*
X194292007Y-83130496D01*
X194314529Y-83138554D01*
X194336153Y-83148782D01*
X194356670Y-83161079D01*
X194375883Y-83175329D01*
X194393607Y-83191393D01*
X194409671Y-83209117D01*
X194423921Y-83228330D01*
X194436218Y-83248847D01*
X194446446Y-83270471D01*
X194454504Y-83292993D01*
X194460316Y-83316197D01*
X194463826Y-83339858D01*
X194465000Y-83363750D01*
X194465000Y-84276250D01*
X194463826Y-84300142D01*
X194460316Y-84323803D01*
X194454504Y-84347007D01*
X194446446Y-84369529D01*
X194436218Y-84391153D01*
X194423921Y-84411670D01*
X194409671Y-84430883D01*
X194393607Y-84448607D01*
X194375883Y-84464671D01*
X194356670Y-84478921D01*
X194336153Y-84491218D01*
X194314529Y-84501446D01*
X194292007Y-84509504D01*
X194268803Y-84515316D01*
X194245142Y-84518826D01*
X194221250Y-84520000D01*
X193733750Y-84520000D01*
X193709858Y-84518826D01*
X193686197Y-84515316D01*
X193662993Y-84509504D01*
X193640471Y-84501446D01*
X193618847Y-84491218D01*
X193598330Y-84478921D01*
X193579117Y-84464671D01*
X193561393Y-84448607D01*
X193545329Y-84430883D01*
X193531079Y-84411670D01*
X193518782Y-84391153D01*
X193508554Y-84369529D01*
X193500496Y-84347007D01*
X193494684Y-84323803D01*
X193491174Y-84300142D01*
X193490000Y-84276250D01*
X193490000Y-83363750D01*
X193491174Y-83339858D01*
X193494684Y-83316197D01*
X193500496Y-83292993D01*
X193508554Y-83270471D01*
X193518782Y-83248847D01*
X193531079Y-83228330D01*
X193545329Y-83209117D01*
X193561393Y-83191393D01*
X193579117Y-83175329D01*
X193598330Y-83161079D01*
X193618847Y-83148782D01*
X193640471Y-83138554D01*
X193662993Y-83130496D01*
X193686197Y-83124684D01*
X193709858Y-83121174D01*
X193733750Y-83120000D01*
X194221250Y-83120000D01*
X194245142Y-83121174D01*
X194245142Y-83121174D01*
G37*
D11*
X193977500Y-83820000D03*
D10*
G36*
X192370142Y-83121174D02*
X192393803Y-83124684D01*
X192417007Y-83130496D01*
X192439529Y-83138554D01*
X192461153Y-83148782D01*
X192481670Y-83161079D01*
X192500883Y-83175329D01*
X192518607Y-83191393D01*
X192534671Y-83209117D01*
X192548921Y-83228330D01*
X192561218Y-83248847D01*
X192571446Y-83270471D01*
X192579504Y-83292993D01*
X192585316Y-83316197D01*
X192588826Y-83339858D01*
X192590000Y-83363750D01*
X192590000Y-84276250D01*
X192588826Y-84300142D01*
X192585316Y-84323803D01*
X192579504Y-84347007D01*
X192571446Y-84369529D01*
X192561218Y-84391153D01*
X192548921Y-84411670D01*
X192534671Y-84430883D01*
X192518607Y-84448607D01*
X192500883Y-84464671D01*
X192481670Y-84478921D01*
X192461153Y-84491218D01*
X192439529Y-84501446D01*
X192417007Y-84509504D01*
X192393803Y-84515316D01*
X192370142Y-84518826D01*
X192346250Y-84520000D01*
X191858750Y-84520000D01*
X191834858Y-84518826D01*
X191811197Y-84515316D01*
X191787993Y-84509504D01*
X191765471Y-84501446D01*
X191743847Y-84491218D01*
X191723330Y-84478921D01*
X191704117Y-84464671D01*
X191686393Y-84448607D01*
X191670329Y-84430883D01*
X191656079Y-84411670D01*
X191643782Y-84391153D01*
X191633554Y-84369529D01*
X191625496Y-84347007D01*
X191619684Y-84323803D01*
X191616174Y-84300142D01*
X191615000Y-84276250D01*
X191615000Y-83363750D01*
X191616174Y-83339858D01*
X191619684Y-83316197D01*
X191625496Y-83292993D01*
X191633554Y-83270471D01*
X191643782Y-83248847D01*
X191656079Y-83228330D01*
X191670329Y-83209117D01*
X191686393Y-83191393D01*
X191704117Y-83175329D01*
X191723330Y-83161079D01*
X191743847Y-83148782D01*
X191765471Y-83138554D01*
X191787993Y-83130496D01*
X191811197Y-83124684D01*
X191834858Y-83121174D01*
X191858750Y-83120000D01*
X192346250Y-83120000D01*
X192370142Y-83121174D01*
X192370142Y-83121174D01*
G37*
D11*
X192102500Y-83820000D03*
G04 #@! TD*
D10*
G04 #@! TO.C,R2*
G36*
X197450142Y-83121174D02*
X197473803Y-83124684D01*
X197497007Y-83130496D01*
X197519529Y-83138554D01*
X197541153Y-83148782D01*
X197561670Y-83161079D01*
X197580883Y-83175329D01*
X197598607Y-83191393D01*
X197614671Y-83209117D01*
X197628921Y-83228330D01*
X197641218Y-83248847D01*
X197651446Y-83270471D01*
X197659504Y-83292993D01*
X197665316Y-83316197D01*
X197668826Y-83339858D01*
X197670000Y-83363750D01*
X197670000Y-84276250D01*
X197668826Y-84300142D01*
X197665316Y-84323803D01*
X197659504Y-84347007D01*
X197651446Y-84369529D01*
X197641218Y-84391153D01*
X197628921Y-84411670D01*
X197614671Y-84430883D01*
X197598607Y-84448607D01*
X197580883Y-84464671D01*
X197561670Y-84478921D01*
X197541153Y-84491218D01*
X197519529Y-84501446D01*
X197497007Y-84509504D01*
X197473803Y-84515316D01*
X197450142Y-84518826D01*
X197426250Y-84520000D01*
X196938750Y-84520000D01*
X196914858Y-84518826D01*
X196891197Y-84515316D01*
X196867993Y-84509504D01*
X196845471Y-84501446D01*
X196823847Y-84491218D01*
X196803330Y-84478921D01*
X196784117Y-84464671D01*
X196766393Y-84448607D01*
X196750329Y-84430883D01*
X196736079Y-84411670D01*
X196723782Y-84391153D01*
X196713554Y-84369529D01*
X196705496Y-84347007D01*
X196699684Y-84323803D01*
X196696174Y-84300142D01*
X196695000Y-84276250D01*
X196695000Y-83363750D01*
X196696174Y-83339858D01*
X196699684Y-83316197D01*
X196705496Y-83292993D01*
X196713554Y-83270471D01*
X196723782Y-83248847D01*
X196736079Y-83228330D01*
X196750329Y-83209117D01*
X196766393Y-83191393D01*
X196784117Y-83175329D01*
X196803330Y-83161079D01*
X196823847Y-83148782D01*
X196845471Y-83138554D01*
X196867993Y-83130496D01*
X196891197Y-83124684D01*
X196914858Y-83121174D01*
X196938750Y-83120000D01*
X197426250Y-83120000D01*
X197450142Y-83121174D01*
X197450142Y-83121174D01*
G37*
D11*
X197182500Y-83820000D03*
D10*
G36*
X199325142Y-83121174D02*
X199348803Y-83124684D01*
X199372007Y-83130496D01*
X199394529Y-83138554D01*
X199416153Y-83148782D01*
X199436670Y-83161079D01*
X199455883Y-83175329D01*
X199473607Y-83191393D01*
X199489671Y-83209117D01*
X199503921Y-83228330D01*
X199516218Y-83248847D01*
X199526446Y-83270471D01*
X199534504Y-83292993D01*
X199540316Y-83316197D01*
X199543826Y-83339858D01*
X199545000Y-83363750D01*
X199545000Y-84276250D01*
X199543826Y-84300142D01*
X199540316Y-84323803D01*
X199534504Y-84347007D01*
X199526446Y-84369529D01*
X199516218Y-84391153D01*
X199503921Y-84411670D01*
X199489671Y-84430883D01*
X199473607Y-84448607D01*
X199455883Y-84464671D01*
X199436670Y-84478921D01*
X199416153Y-84491218D01*
X199394529Y-84501446D01*
X199372007Y-84509504D01*
X199348803Y-84515316D01*
X199325142Y-84518826D01*
X199301250Y-84520000D01*
X198813750Y-84520000D01*
X198789858Y-84518826D01*
X198766197Y-84515316D01*
X198742993Y-84509504D01*
X198720471Y-84501446D01*
X198698847Y-84491218D01*
X198678330Y-84478921D01*
X198659117Y-84464671D01*
X198641393Y-84448607D01*
X198625329Y-84430883D01*
X198611079Y-84411670D01*
X198598782Y-84391153D01*
X198588554Y-84369529D01*
X198580496Y-84347007D01*
X198574684Y-84323803D01*
X198571174Y-84300142D01*
X198570000Y-84276250D01*
X198570000Y-83363750D01*
X198571174Y-83339858D01*
X198574684Y-83316197D01*
X198580496Y-83292993D01*
X198588554Y-83270471D01*
X198598782Y-83248847D01*
X198611079Y-83228330D01*
X198625329Y-83209117D01*
X198641393Y-83191393D01*
X198659117Y-83175329D01*
X198678330Y-83161079D01*
X198698847Y-83148782D01*
X198720471Y-83138554D01*
X198742993Y-83130496D01*
X198766197Y-83124684D01*
X198789858Y-83121174D01*
X198813750Y-83120000D01*
X199301250Y-83120000D01*
X199325142Y-83121174D01*
X199325142Y-83121174D01*
G37*
D11*
X199057500Y-83820000D03*
G04 #@! TD*
D12*
G04 #@! TO.C,U1*
X198950000Y-88640000D03*
X198950000Y-89440000D03*
X198950000Y-90240000D03*
X198950000Y-91040000D03*
X198950000Y-91840000D03*
X198950000Y-92640000D03*
X198950000Y-93440000D03*
X198950000Y-94240000D03*
D13*
X200400000Y-95690000D03*
X201200000Y-95690000D03*
X202000000Y-95690000D03*
X202800000Y-95690000D03*
X203600000Y-95690000D03*
X204400000Y-95690000D03*
X205200000Y-95690000D03*
X206000000Y-95690000D03*
D12*
X207450000Y-94240000D03*
X207450000Y-93440000D03*
X207450000Y-92640000D03*
X207450000Y-91840000D03*
X207450000Y-91040000D03*
X207450000Y-90240000D03*
X207450000Y-89440000D03*
X207450000Y-88640000D03*
D13*
X206000000Y-87190000D03*
X205200000Y-87190000D03*
X204400000Y-87190000D03*
X203600000Y-87190000D03*
X202800000Y-87190000D03*
X202000000Y-87190000D03*
X201200000Y-87190000D03*
X200400000Y-87190000D03*
G04 #@! TD*
D14*
G04 #@! TO.C,Y1*
X196326000Y-93471000D03*
X194322700Y-90157300D03*
X196329300Y-90144600D03*
X194326000Y-93471000D03*
G04 #@! TD*
M02*
